<mxfile host="Electron" agent="Mozilla/5.0 (Windows NT 10.0; Win64; x64) AppleWebKit/537.36 (KHTML, like Gecko) draw.io/24.7.17 Chrome/128.0.6613.36 Electron/32.0.1 Safari/537.36" version="24.7.17">
  <diagram id="kgpKYQtTHZ0yAKxKKP6v" name="Page-1">
    <mxGraphModel dx="2977" dy="2110" grid="1" gridSize="10" guides="1" tooltips="1" connect="1" arrows="1" fold="1" page="1" pageScale="1" pageWidth="850" pageHeight="1100" math="0" shadow="0">
      <root>
        <mxCell id="0" />
        <mxCell id="1" parent="0" />
        <mxCell id="xtjQl0Pk59A_ZZ2wyOkk-2" value="" style="edgeStyle=orthogonalEdgeStyle;rounded=0;orthogonalLoop=1;jettySize=auto;html=1;" parent="1" source="pxBf4jjnQpI_3W8-Z-9e-1" target="xtjQl0Pk59A_ZZ2wyOkk-1" edge="1">
          <mxGeometry relative="1" as="geometry" />
        </mxCell>
        <mxCell id="pxBf4jjnQpI_3W8-Z-9e-1" value="Start" style="strokeWidth=2;html=1;shape=mxgraph.flowchart.start_1;whiteSpace=wrap;" parent="1" vertex="1">
          <mxGeometry x="110" y="-10" width="100" height="60" as="geometry" />
        </mxCell>
        <mxCell id="pxBf4jjnQpI_3W8-Z-9e-9" value="" style="edgeStyle=orthogonalEdgeStyle;rounded=0;orthogonalLoop=1;jettySize=auto;html=1;" parent="1" source="pxBf4jjnQpI_3W8-Z-9e-6" target="pxBf4jjnQpI_3W8-Z-9e-8" edge="1">
          <mxGeometry relative="1" as="geometry" />
        </mxCell>
        <mxCell id="pxBf4jjnQpI_3W8-Z-9e-6" value="&lt;div&gt;input&lt;/div&gt;menu" style="shape=parallelogram;perimeter=parallelogramPerimeter;whiteSpace=wrap;html=1;fixedSize=1;strokeWidth=2;" parent="1" vertex="1">
          <mxGeometry x="100" y="250" width="120" height="60" as="geometry" />
        </mxCell>
        <mxCell id="pxBf4jjnQpI_3W8-Z-9e-11" value="" style="edgeStyle=orthogonalEdgeStyle;rounded=0;orthogonalLoop=1;jettySize=auto;html=1;" parent="1" source="pxBf4jjnQpI_3W8-Z-9e-8" target="pxBf4jjnQpI_3W8-Z-9e-10" edge="1">
          <mxGeometry relative="1" as="geometry" />
        </mxCell>
        <mxCell id="pxBf4jjnQpI_3W8-Z-9e-39" value="" style="edgeStyle=orthogonalEdgeStyle;rounded=0;orthogonalLoop=1;jettySize=auto;html=1;" parent="1" source="pxBf4jjnQpI_3W8-Z-9e-8" target="pxBf4jjnQpI_3W8-Z-9e-38" edge="1">
          <mxGeometry relative="1" as="geometry" />
        </mxCell>
        <mxCell id="pxBf4jjnQpI_3W8-Z-9e-8" value="menu==1" style="rhombus;whiteSpace=wrap;html=1;strokeWidth=2;" parent="1" vertex="1">
          <mxGeometry x="110" y="360" width="100" height="100" as="geometry" />
        </mxCell>
        <mxCell id="pxBf4jjnQpI_3W8-Z-9e-13" value="" style="edgeStyle=orthogonalEdgeStyle;rounded=0;orthogonalLoop=1;jettySize=auto;html=1;" parent="1" source="pxBf4jjnQpI_3W8-Z-9e-10" target="pxBf4jjnQpI_3W8-Z-9e-12" edge="1">
          <mxGeometry relative="1" as="geometry" />
        </mxCell>
        <mxCell id="pxBf4jjnQpI_3W8-Z-9e-164" value="" style="edgeStyle=orthogonalEdgeStyle;rounded=0;orthogonalLoop=1;jettySize=auto;html=1;" parent="1" source="pxBf4jjnQpI_3W8-Z-9e-10" target="pxBf4jjnQpI_3W8-Z-9e-163" edge="1">
          <mxGeometry relative="1" as="geometry" />
        </mxCell>
        <mxCell id="pxBf4jjnQpI_3W8-Z-9e-10" value="menu==2" style="rhombus;whiteSpace=wrap;html=1;strokeWidth=2;" parent="1" vertex="1">
          <mxGeometry x="400" y="360" width="100" height="100" as="geometry" />
        </mxCell>
        <mxCell id="pxBf4jjnQpI_3W8-Z-9e-15" value="" style="edgeStyle=orthogonalEdgeStyle;rounded=0;orthogonalLoop=1;jettySize=auto;html=1;" parent="1" source="pxBf4jjnQpI_3W8-Z-9e-12" target="pxBf4jjnQpI_3W8-Z-9e-14" edge="1">
          <mxGeometry relative="1" as="geometry" />
        </mxCell>
        <mxCell id="czKzasHrka54ov1dvyU--2" value="" style="edgeStyle=orthogonalEdgeStyle;rounded=0;orthogonalLoop=1;jettySize=auto;html=1;" parent="1" source="pxBf4jjnQpI_3W8-Z-9e-12" target="czKzasHrka54ov1dvyU--1" edge="1">
          <mxGeometry relative="1" as="geometry" />
        </mxCell>
        <mxCell id="pxBf4jjnQpI_3W8-Z-9e-12" value="menu==3" style="rhombus;whiteSpace=wrap;html=1;strokeWidth=2;" parent="1" vertex="1">
          <mxGeometry x="670" y="360" width="100" height="100" as="geometry" />
        </mxCell>
        <mxCell id="pxBf4jjnQpI_3W8-Z-9e-17" value="" style="edgeStyle=orthogonalEdgeStyle;rounded=0;orthogonalLoop=1;jettySize=auto;html=1;" parent="1" source="pxBf4jjnQpI_3W8-Z-9e-14" target="pxBf4jjnQpI_3W8-Z-9e-16" edge="1">
          <mxGeometry relative="1" as="geometry" />
        </mxCell>
        <mxCell id="czKzasHrka54ov1dvyU--71" value="" style="edgeStyle=orthogonalEdgeStyle;rounded=0;orthogonalLoop=1;jettySize=auto;html=1;" parent="1" source="pxBf4jjnQpI_3W8-Z-9e-14" target="czKzasHrka54ov1dvyU--38" edge="1">
          <mxGeometry relative="1" as="geometry" />
        </mxCell>
        <mxCell id="pxBf4jjnQpI_3W8-Z-9e-14" value="menu==4" style="rhombus;whiteSpace=wrap;html=1;strokeWidth=2;" parent="1" vertex="1">
          <mxGeometry x="950" y="360" width="100" height="100" as="geometry" />
        </mxCell>
        <mxCell id="pxBf4jjnQpI_3W8-Z-9e-19" value="" style="edgeStyle=orthogonalEdgeStyle;rounded=0;orthogonalLoop=1;jettySize=auto;html=1;" parent="1" source="pxBf4jjnQpI_3W8-Z-9e-16" target="pxBf4jjnQpI_3W8-Z-9e-18" edge="1">
          <mxGeometry relative="1" as="geometry" />
        </mxCell>
        <mxCell id="czKzasHrka54ov1dvyU--102" value="" style="edgeStyle=orthogonalEdgeStyle;rounded=0;orthogonalLoop=1;jettySize=auto;html=1;" parent="1" source="pxBf4jjnQpI_3W8-Z-9e-16" target="czKzasHrka54ov1dvyU--75" edge="1">
          <mxGeometry relative="1" as="geometry" />
        </mxCell>
        <mxCell id="pxBf4jjnQpI_3W8-Z-9e-16" value="menu==5" style="rhombus;whiteSpace=wrap;html=1;strokeWidth=2;" parent="1" vertex="1">
          <mxGeometry x="1240" y="360" width="100" height="100" as="geometry" />
        </mxCell>
        <mxCell id="pxBf4jjnQpI_3W8-Z-9e-21" value="" style="edgeStyle=orthogonalEdgeStyle;rounded=0;orthogonalLoop=1;jettySize=auto;html=1;" parent="1" source="pxBf4jjnQpI_3W8-Z-9e-18" target="pxBf4jjnQpI_3W8-Z-9e-20" edge="1">
          <mxGeometry relative="1" as="geometry" />
        </mxCell>
        <mxCell id="czKzasHrka54ov1dvyU--132" value="" style="edgeStyle=orthogonalEdgeStyle;rounded=0;orthogonalLoop=1;jettySize=auto;html=1;" parent="1" source="pxBf4jjnQpI_3W8-Z-9e-18" target="czKzasHrka54ov1dvyU--106" edge="1">
          <mxGeometry relative="1" as="geometry" />
        </mxCell>
        <mxCell id="pxBf4jjnQpI_3W8-Z-9e-18" value="menu==6" style="rhombus;whiteSpace=wrap;html=1;strokeWidth=2;" parent="1" vertex="1">
          <mxGeometry x="1520" y="360" width="100" height="100" as="geometry" />
        </mxCell>
        <mxCell id="pxBf4jjnQpI_3W8-Z-9e-33" value="" style="edgeStyle=orthogonalEdgeStyle;rounded=0;orthogonalLoop=1;jettySize=auto;html=1;" parent="1" source="pxBf4jjnQpI_3W8-Z-9e-20" edge="1">
          <mxGeometry relative="1" as="geometry">
            <mxPoint x="1760" y="500" as="targetPoint" />
          </mxGeometry>
        </mxCell>
        <mxCell id="pxBf4jjnQpI_3W8-Z-9e-162" style="edgeStyle=orthogonalEdgeStyle;rounded=0;orthogonalLoop=1;jettySize=auto;html=1;entryX=1;entryY=0.5;entryDx=0;entryDy=0;" parent="1" source="pxBf4jjnQpI_3W8-Z-9e-20" target="pxBf4jjnQpI_3W8-Z-9e-6" edge="1">
          <mxGeometry relative="1" as="geometry">
            <Array as="points">
              <mxPoint x="1760" y="280" />
            </Array>
          </mxGeometry>
        </mxCell>
        <mxCell id="pxBf4jjnQpI_3W8-Z-9e-20" value="menu==7" style="rhombus;whiteSpace=wrap;html=1;strokeWidth=2;" parent="1" vertex="1">
          <mxGeometry x="1710" y="360" width="100" height="100" as="geometry" />
        </mxCell>
        <mxCell id="pxBf4jjnQpI_3W8-Z-9e-25" value="false" style="text;html=1;align=center;verticalAlign=middle;resizable=0;points=[];autosize=1;strokeColor=none;fillColor=none;" parent="1" vertex="1">
          <mxGeometry x="200" y="380" width="50" height="30" as="geometry" />
        </mxCell>
        <mxCell id="pxBf4jjnQpI_3W8-Z-9e-26" value="false" style="text;html=1;align=center;verticalAlign=middle;resizable=0;points=[];autosize=1;strokeColor=none;fillColor=none;" parent="1" vertex="1">
          <mxGeometry x="490" y="380" width="50" height="30" as="geometry" />
        </mxCell>
        <mxCell id="pxBf4jjnQpI_3W8-Z-9e-27" value="false" style="text;html=1;align=center;verticalAlign=middle;resizable=0;points=[];autosize=1;strokeColor=none;fillColor=none;" parent="1" vertex="1">
          <mxGeometry x="760" y="381.5" width="50" height="30" as="geometry" />
        </mxCell>
        <mxCell id="pxBf4jjnQpI_3W8-Z-9e-28" value="false" style="text;html=1;align=center;verticalAlign=middle;resizable=0;points=[];autosize=1;strokeColor=none;fillColor=none;" parent="1" vertex="1">
          <mxGeometry x="1050" y="380" width="50" height="30" as="geometry" />
        </mxCell>
        <mxCell id="pxBf4jjnQpI_3W8-Z-9e-29" value="false" style="text;html=1;align=center;verticalAlign=middle;resizable=0;points=[];autosize=1;strokeColor=none;fillColor=none;" parent="1" vertex="1">
          <mxGeometry x="1330" y="380" width="50" height="30" as="geometry" />
        </mxCell>
        <mxCell id="pxBf4jjnQpI_3W8-Z-9e-30" value="false" style="text;html=1;align=center;verticalAlign=middle;resizable=0;points=[];autosize=1;strokeColor=none;fillColor=none;" parent="1" vertex="1">
          <mxGeometry x="1610" y="380" width="50" height="30" as="geometry" />
        </mxCell>
        <mxCell id="pxBf4jjnQpI_3W8-Z-9e-37" value="" style="edgeStyle=orthogonalEdgeStyle;rounded=0;orthogonalLoop=1;jettySize=auto;html=1;" parent="1" target="pxBf4jjnQpI_3W8-Z-9e-36" edge="1">
          <mxGeometry relative="1" as="geometry">
            <mxPoint x="1760" y="560" as="sourcePoint" />
          </mxGeometry>
        </mxCell>
        <mxCell id="pxBf4jjnQpI_3W8-Z-9e-32" value="break" style="whiteSpace=wrap;html=1;strokeWidth=2;" parent="1" vertex="1">
          <mxGeometry x="1700" y="500" width="120" height="60" as="geometry" />
        </mxCell>
        <mxCell id="pxBf4jjnQpI_3W8-Z-9e-36" value="END" style="strokeWidth=2;html=1;shape=mxgraph.flowchart.start_1;whiteSpace=wrap;" parent="1" vertex="1">
          <mxGeometry x="1710" y="600" width="100" height="60" as="geometry" />
        </mxCell>
        <mxCell id="pxBf4jjnQpI_3W8-Z-9e-41" value="" style="edgeStyle=orthogonalEdgeStyle;rounded=0;orthogonalLoop=1;jettySize=auto;html=1;" parent="1" source="pxBf4jjnQpI_3W8-Z-9e-38" target="pxBf4jjnQpI_3W8-Z-9e-40" edge="1">
          <mxGeometry relative="1" as="geometry" />
        </mxCell>
        <mxCell id="pxBf4jjnQpI_3W8-Z-9e-38" value="&lt;div&gt;input&lt;/div&gt;namaMahasiswa" style="shape=parallelogram;perimeter=parallelogramPerimeter;whiteSpace=wrap;html=1;fixedSize=1;strokeWidth=2;" parent="1" vertex="1">
          <mxGeometry x="100" y="500" width="120" height="60" as="geometry" />
        </mxCell>
        <mxCell id="pxBf4jjnQpI_3W8-Z-9e-43" value="" style="edgeStyle=orthogonalEdgeStyle;rounded=0;orthogonalLoop=1;jettySize=auto;html=1;" parent="1" source="pxBf4jjnQpI_3W8-Z-9e-40" target="pxBf4jjnQpI_3W8-Z-9e-42" edge="1">
          <mxGeometry relative="1" as="geometry" />
        </mxCell>
        <mxCell id="pxBf4jjnQpI_3W8-Z-9e-40" value="input&lt;div&gt;nimMahasiswa&lt;/div&gt;" style="shape=parallelogram;perimeter=parallelogramPerimeter;whiteSpace=wrap;html=1;fixedSize=1;strokeWidth=2;" parent="1" vertex="1">
          <mxGeometry x="100" y="600" width="120" height="60" as="geometry" />
        </mxCell>
        <mxCell id="pxBf4jjnQpI_3W8-Z-9e-45" value="" style="edgeStyle=orthogonalEdgeStyle;rounded=0;orthogonalLoop=1;jettySize=auto;html=1;" parent="1" source="pxBf4jjnQpI_3W8-Z-9e-42" target="pxBf4jjnQpI_3W8-Z-9e-44" edge="1">
          <mxGeometry relative="1" as="geometry" />
        </mxCell>
        <mxCell id="pxBf4jjnQpI_3W8-Z-9e-42" value="&lt;font color=&quot;#ffffff&quot;&gt;input&lt;/font&gt;&lt;div&gt;&lt;font color=&quot;#ffffff&quot;&gt;jenisPrestasi&lt;/font&gt;&lt;/div&gt;" style="shape=parallelogram;perimeter=parallelogramPerimeter;whiteSpace=wrap;html=1;fixedSize=1;strokeWidth=2;" parent="1" vertex="1">
          <mxGeometry x="100" y="700" width="120" height="60" as="geometry" />
        </mxCell>
        <mxCell id="pxBf4jjnQpI_3W8-Z-9e-55" value="" style="edgeStyle=orthogonalEdgeStyle;rounded=0;orthogonalLoop=1;jettySize=auto;html=1;" parent="1" source="pxBf4jjnQpI_3W8-Z-9e-44" target="pxBf4jjnQpI_3W8-Z-9e-54" edge="1">
          <mxGeometry relative="1" as="geometry" />
        </mxCell>
        <mxCell id="pxBf4jjnQpI_3W8-Z-9e-148" style="edgeStyle=orthogonalEdgeStyle;rounded=0;orthogonalLoop=1;jettySize=auto;html=1;entryX=1;entryY=0.5;entryDx=0;entryDy=0;" parent="1" source="pxBf4jjnQpI_3W8-Z-9e-44" target="pxBf4jjnQpI_3W8-Z-9e-88" edge="1">
          <mxGeometry relative="1" as="geometry">
            <Array as="points">
              <mxPoint x="270" y="865" />
              <mxPoint x="270" y="1280" />
            </Array>
          </mxGeometry>
        </mxCell>
        <mxCell id="pxBf4jjnQpI_3W8-Z-9e-44" value="jenisPrestasi&amp;nbsp;&lt;div&gt;= &quot;Juara 1&quot;&lt;/div&gt;" style="rhombus;whiteSpace=wrap;html=1;strokeWidth=2;" parent="1" vertex="1">
          <mxGeometry x="105" y="810" width="110" height="110" as="geometry" />
        </mxCell>
        <mxCell id="pxBf4jjnQpI_3W8-Z-9e-51" value="false" style="text;html=1;align=center;verticalAlign=middle;resizable=0;points=[];autosize=1;strokeColor=none;fillColor=none;" parent="1" vertex="1">
          <mxGeometry x="1760" y="330" width="50" height="30" as="geometry" />
        </mxCell>
        <mxCell id="pxBf4jjnQpI_3W8-Z-9e-57" value="" style="edgeStyle=orthogonalEdgeStyle;rounded=0;orthogonalLoop=1;jettySize=auto;html=1;" parent="1" source="pxBf4jjnQpI_3W8-Z-9e-54" target="pxBf4jjnQpI_3W8-Z-9e-56" edge="1">
          <mxGeometry relative="1" as="geometry" />
        </mxCell>
        <mxCell id="pxBf4jjnQpI_3W8-Z-9e-72" value="" style="edgeStyle=orthogonalEdgeStyle;rounded=0;orthogonalLoop=1;jettySize=auto;html=1;" parent="1" source="pxBf4jjnQpI_3W8-Z-9e-54" edge="1">
          <mxGeometry relative="1" as="geometry">
            <mxPoint x="270" y="1005" as="targetPoint" />
          </mxGeometry>
        </mxCell>
        <mxCell id="pxBf4jjnQpI_3W8-Z-9e-54" value="jenisPrestasi&amp;nbsp;&lt;div&gt;= &quot;Juara 2&quot;&lt;/div&gt;" style="rhombus;whiteSpace=wrap;html=1;strokeWidth=2;" parent="1" vertex="1">
          <mxGeometry x="105" y="950" width="110" height="110" as="geometry" />
        </mxCell>
        <mxCell id="pxBf4jjnQpI_3W8-Z-9e-61" value="" style="edgeStyle=orthogonalEdgeStyle;rounded=0;orthogonalLoop=1;jettySize=auto;html=1;" parent="1" source="pxBf4jjnQpI_3W8-Z-9e-56" target="pxBf4jjnQpI_3W8-Z-9e-60" edge="1">
          <mxGeometry relative="1" as="geometry" />
        </mxCell>
        <mxCell id="pxBf4jjnQpI_3W8-Z-9e-74" value="" style="edgeStyle=orthogonalEdgeStyle;rounded=0;orthogonalLoop=1;jettySize=auto;html=1;" parent="1" source="pxBf4jjnQpI_3W8-Z-9e-56" edge="1">
          <mxGeometry relative="1" as="geometry">
            <mxPoint x="270" y="1155" as="targetPoint" />
          </mxGeometry>
        </mxCell>
        <mxCell id="pxBf4jjnQpI_3W8-Z-9e-56" value="jenisPrestasi&amp;nbsp;&lt;div&gt;= &quot;Juara 3&quot;&lt;/div&gt;" style="rhombus;whiteSpace=wrap;html=1;strokeWidth=2;" parent="1" vertex="1">
          <mxGeometry x="105" y="1100" width="110" height="110" as="geometry" />
        </mxCell>
        <mxCell id="pxBf4jjnQpI_3W8-Z-9e-149" style="edgeStyle=orthogonalEdgeStyle;rounded=0;orthogonalLoop=1;jettySize=auto;html=1;entryX=0;entryY=0.5;entryDx=0;entryDy=0;" parent="1" source="pxBf4jjnQpI_3W8-Z-9e-60" target="pxBf4jjnQpI_3W8-Z-9e-42" edge="1">
          <mxGeometry relative="1" as="geometry">
            <Array as="points">
              <mxPoint x="-20" y="730" />
            </Array>
          </mxGeometry>
        </mxCell>
        <mxCell id="pxBf4jjnQpI_3W8-Z-9e-60" value="jenis prestasi&amp;nbsp;&lt;div&gt;tidak valid&amp;nbsp;&lt;/div&gt;&lt;div&gt;coba lagi&lt;/div&gt;" style="shape=parallelogram;perimeter=parallelogramPerimeter;whiteSpace=wrap;html=1;fixedSize=1;strokeWidth=2;" parent="1" vertex="1">
          <mxGeometry x="-80" y="1125" width="120" height="60" as="geometry" />
        </mxCell>
        <mxCell id="pxBf4jjnQpI_3W8-Z-9e-87" value="" style="edgeStyle=orthogonalEdgeStyle;rounded=0;orthogonalLoop=1;jettySize=auto;html=1;" parent="1" source="pxBf4jjnQpI_3W8-Z-9e-86" target="pxBf4jjnQpI_3W8-Z-9e-6" edge="1">
          <mxGeometry relative="1" as="geometry" />
        </mxCell>
        <mxCell id="pxBf4jjnQpI_3W8-Z-9e-86" value="A" style="strokeWidth=2;html=1;shape=mxgraph.flowchart.start_2;whiteSpace=wrap;" parent="1" vertex="1">
          <mxGeometry x="20" y="262.5" width="40" height="35" as="geometry" />
        </mxCell>
        <mxCell id="pxBf4jjnQpI_3W8-Z-9e-98" value="" style="edgeStyle=orthogonalEdgeStyle;rounded=0;orthogonalLoop=1;jettySize=auto;html=1;" parent="1" source="pxBf4jjnQpI_3W8-Z-9e-88" target="pxBf4jjnQpI_3W8-Z-9e-96" edge="1">
          <mxGeometry relative="1" as="geometry" />
        </mxCell>
        <mxCell id="pxBf4jjnQpI_3W8-Z-9e-88" value="input&lt;div&gt;tingkatPrestasi&lt;/div&gt;" style="shape=parallelogram;perimeter=parallelogramPerimeter;whiteSpace=wrap;html=1;fixedSize=1;strokeWidth=2;" parent="1" vertex="1">
          <mxGeometry x="95" y="1250" width="120" height="60" as="geometry" />
        </mxCell>
        <mxCell id="pxBf4jjnQpI_3W8-Z-9e-100" value="" style="edgeStyle=orthogonalEdgeStyle;rounded=0;orthogonalLoop=1;jettySize=auto;html=1;" parent="1" source="pxBf4jjnQpI_3W8-Z-9e-96" target="pxBf4jjnQpI_3W8-Z-9e-99" edge="1">
          <mxGeometry relative="1" as="geometry" />
        </mxCell>
        <mxCell id="pxBf4jjnQpI_3W8-Z-9e-150" style="edgeStyle=orthogonalEdgeStyle;rounded=0;orthogonalLoop=1;jettySize=auto;html=1;entryX=1;entryY=0.5;entryDx=0;entryDy=0;" parent="1" source="pxBf4jjnQpI_3W8-Z-9e-96" target="pxBf4jjnQpI_3W8-Z-9e-114" edge="1">
          <mxGeometry relative="1" as="geometry">
            <Array as="points">
              <mxPoint x="270" y="1405" />
              <mxPoint x="270" y="1840" />
            </Array>
          </mxGeometry>
        </mxCell>
        <mxCell id="pxBf4jjnQpI_3W8-Z-9e-96" value="tingkatPrestasi&amp;nbsp;&lt;div&gt;= &quot;lokal&quot;&lt;/div&gt;" style="rhombus;whiteSpace=wrap;html=1;strokeWidth=2;" parent="1" vertex="1">
          <mxGeometry x="100" y="1360" width="110" height="110" as="geometry" />
        </mxCell>
        <mxCell id="pxBf4jjnQpI_3W8-Z-9e-102" value="" style="edgeStyle=orthogonalEdgeStyle;rounded=0;orthogonalLoop=1;jettySize=auto;html=1;" parent="1" source="pxBf4jjnQpI_3W8-Z-9e-99" target="pxBf4jjnQpI_3W8-Z-9e-101" edge="1">
          <mxGeometry relative="1" as="geometry" />
        </mxCell>
        <mxCell id="pxBf4jjnQpI_3W8-Z-9e-112" value="" style="edgeStyle=orthogonalEdgeStyle;rounded=0;orthogonalLoop=1;jettySize=auto;html=1;" parent="1" source="pxBf4jjnQpI_3W8-Z-9e-99" edge="1">
          <mxGeometry relative="1" as="geometry">
            <mxPoint x="270" y="1555" as="targetPoint" />
          </mxGeometry>
        </mxCell>
        <mxCell id="pxBf4jjnQpI_3W8-Z-9e-99" value="tingkatPrestasi&amp;nbsp;&lt;div&gt;= &quot;nasional&quot;&lt;/div&gt;" style="rhombus;whiteSpace=wrap;html=1;strokeWidth=2;" parent="1" vertex="1">
          <mxGeometry x="100" y="1500" width="110" height="110" as="geometry" />
        </mxCell>
        <mxCell id="pxBf4jjnQpI_3W8-Z-9e-104" value="" style="edgeStyle=orthogonalEdgeStyle;rounded=0;orthogonalLoop=1;jettySize=auto;html=1;" parent="1" source="pxBf4jjnQpI_3W8-Z-9e-101" target="pxBf4jjnQpI_3W8-Z-9e-103" edge="1">
          <mxGeometry relative="1" as="geometry" />
        </mxCell>
        <mxCell id="pxBf4jjnQpI_3W8-Z-9e-113" value="" style="edgeStyle=orthogonalEdgeStyle;rounded=0;orthogonalLoop=1;jettySize=auto;html=1;" parent="1" source="pxBf4jjnQpI_3W8-Z-9e-101" edge="1">
          <mxGeometry relative="1" as="geometry">
            <mxPoint x="270" y="1705" as="targetPoint" />
          </mxGeometry>
        </mxCell>
        <mxCell id="pxBf4jjnQpI_3W8-Z-9e-101" value="tingkatPrestasi&amp;nbsp;&lt;div&gt;= &quot;internasional&quot;&lt;/div&gt;" style="rhombus;whiteSpace=wrap;html=1;strokeWidth=2;" parent="1" vertex="1">
          <mxGeometry x="100" y="1650" width="110" height="110" as="geometry" />
        </mxCell>
        <mxCell id="pxBf4jjnQpI_3W8-Z-9e-151" style="edgeStyle=orthogonalEdgeStyle;rounded=0;orthogonalLoop=1;jettySize=auto;html=1;entryX=0;entryY=0.5;entryDx=0;entryDy=0;" parent="1" source="pxBf4jjnQpI_3W8-Z-9e-103" target="pxBf4jjnQpI_3W8-Z-9e-88" edge="1">
          <mxGeometry relative="1" as="geometry">
            <Array as="points">
              <mxPoint x="-20" y="1280" />
            </Array>
          </mxGeometry>
        </mxCell>
        <mxCell id="pxBf4jjnQpI_3W8-Z-9e-103" value="tingkat prestasi&amp;nbsp;&lt;div&gt;tidak valid&amp;nbsp;&lt;/div&gt;&lt;div&gt;coba lagi&lt;/div&gt;" style="shape=parallelogram;perimeter=parallelogramPerimeter;whiteSpace=wrap;html=1;fixedSize=1;strokeWidth=2;" parent="1" vertex="1">
          <mxGeometry x="-80" y="1675" width="120" height="60" as="geometry" />
        </mxCell>
        <mxCell id="pxBf4jjnQpI_3W8-Z-9e-119" value="" style="edgeStyle=orthogonalEdgeStyle;rounded=0;orthogonalLoop=1;jettySize=auto;html=1;" parent="1" source="pxBf4jjnQpI_3W8-Z-9e-114" target="pxBf4jjnQpI_3W8-Z-9e-118" edge="1">
          <mxGeometry relative="1" as="geometry" />
        </mxCell>
        <mxCell id="pxBf4jjnQpI_3W8-Z-9e-114" value="input&lt;div&gt;tahunPrestasi&lt;/div&gt;" style="shape=parallelogram;perimeter=parallelogramPerimeter;whiteSpace=wrap;html=1;fixedSize=1;strokeWidth=2;" parent="1" vertex="1">
          <mxGeometry x="95" y="1810" width="120" height="60" as="geometry" />
        </mxCell>
        <mxCell id="pxBf4jjnQpI_3W8-Z-9e-121" value="" style="edgeStyle=orthogonalEdgeStyle;rounded=0;orthogonalLoop=1;jettySize=auto;html=1;" parent="1" source="pxBf4jjnQpI_3W8-Z-9e-118" target="pxBf4jjnQpI_3W8-Z-9e-120" edge="1">
          <mxGeometry relative="1" as="geometry" />
        </mxCell>
        <mxCell id="pxBf4jjnQpI_3W8-Z-9e-153" value="" style="edgeStyle=orthogonalEdgeStyle;rounded=0;orthogonalLoop=1;jettySize=auto;html=1;" parent="1" source="pxBf4jjnQpI_3W8-Z-9e-118" target="pxBf4jjnQpI_3W8-Z-9e-132" edge="1">
          <mxGeometry relative="1" as="geometry" />
        </mxCell>
        <mxCell id="pxBf4jjnQpI_3W8-Z-9e-118" value="tahunPrestasi &amp;gt;= 2010&amp;nbsp;&lt;div&gt;&amp;amp;&amp;amp; tahunPrestasi &amp;lt;=2024&lt;/div&gt;" style="rhombus;whiteSpace=wrap;html=1;strokeWidth=2;" parent="1" vertex="1">
          <mxGeometry x="65" y="1920" width="180" height="160" as="geometry" />
        </mxCell>
        <mxCell id="pxBf4jjnQpI_3W8-Z-9e-152" style="edgeStyle=orthogonalEdgeStyle;rounded=0;orthogonalLoop=1;jettySize=auto;html=1;entryX=0;entryY=0.5;entryDx=0;entryDy=0;" parent="1" source="pxBf4jjnQpI_3W8-Z-9e-120" target="pxBf4jjnQpI_3W8-Z-9e-114" edge="1">
          <mxGeometry relative="1" as="geometry">
            <Array as="points">
              <mxPoint x="-50" y="1840" />
            </Array>
          </mxGeometry>
        </mxCell>
        <mxCell id="pxBf4jjnQpI_3W8-Z-9e-120" value="tahun prestasi&amp;nbsp;&lt;div&gt;tidak valid&amp;nbsp;&lt;/div&gt;&lt;div&gt;coba lagi&lt;/div&gt;" style="shape=parallelogram;perimeter=parallelogramPerimeter;whiteSpace=wrap;html=1;fixedSize=1;strokeWidth=2;" parent="1" vertex="1">
          <mxGeometry x="-110" y="1970" width="120" height="60" as="geometry" />
        </mxCell>
        <mxCell id="pxBf4jjnQpI_3W8-Z-9e-135" value="" style="edgeStyle=orthogonalEdgeStyle;rounded=0;orthogonalLoop=1;jettySize=auto;html=1;" parent="1" source="pxBf4jjnQpI_3W8-Z-9e-132" target="pxBf4jjnQpI_3W8-Z-9e-134" edge="1">
          <mxGeometry relative="1" as="geometry" />
        </mxCell>
        <mxCell id="pxBf4jjnQpI_3W8-Z-9e-132" value="data prestasi&amp;nbsp;&lt;div&gt;berhasil&amp;nbsp;&lt;/div&gt;&lt;div&gt;ditambahkan&lt;/div&gt;" style="shape=parallelogram;perimeter=parallelogramPerimeter;whiteSpace=wrap;html=1;fixedSize=1;strokeWidth=2;" parent="1" vertex="1">
          <mxGeometry x="95" y="2120" width="120" height="60" as="geometry" />
        </mxCell>
        <mxCell id="pxBf4jjnQpI_3W8-Z-9e-137" value="" style="edgeStyle=orthogonalEdgeStyle;rounded=0;orthogonalLoop=1;jettySize=auto;html=1;" parent="1" source="pxBf4jjnQpI_3W8-Z-9e-134" target="pxBf4jjnQpI_3W8-Z-9e-136" edge="1">
          <mxGeometry relative="1" as="geometry" />
        </mxCell>
        <mxCell id="pxBf4jjnQpI_3W8-Z-9e-134" value="index++" style="whiteSpace=wrap;html=1;strokeWidth=2;" parent="1" vertex="1">
          <mxGeometry x="95" y="2220" width="120" height="60" as="geometry" />
        </mxCell>
        <mxCell id="pxBf4jjnQpI_3W8-Z-9e-136" value="A" style="strokeWidth=2;html=1;shape=mxgraph.flowchart.start_2;whiteSpace=wrap;" parent="1" vertex="1">
          <mxGeometry y="2232.5" width="40" height="35" as="geometry" />
        </mxCell>
        <mxCell id="pxBf4jjnQpI_3W8-Z-9e-138" value="true" style="text;html=1;align=center;verticalAlign=middle;resizable=0;points=[];autosize=1;strokeColor=none;fillColor=none;" parent="1" vertex="1">
          <mxGeometry x="215" y="830" width="40" height="30" as="geometry" />
        </mxCell>
        <mxCell id="pxBf4jjnQpI_3W8-Z-9e-139" value="true" style="text;html=1;align=center;verticalAlign=middle;resizable=0;points=[];autosize=1;strokeColor=none;fillColor=none;" parent="1" vertex="1">
          <mxGeometry x="215" y="970" width="40" height="30" as="geometry" />
        </mxCell>
        <mxCell id="pxBf4jjnQpI_3W8-Z-9e-140" value="true" style="text;html=1;align=center;verticalAlign=middle;resizable=0;points=[];autosize=1;strokeColor=none;fillColor=none;" parent="1" vertex="1">
          <mxGeometry x="215" y="1125" width="40" height="30" as="geometry" />
        </mxCell>
        <mxCell id="pxBf4jjnQpI_3W8-Z-9e-141" value="true" style="text;html=1;align=center;verticalAlign=middle;resizable=0;points=[];autosize=1;strokeColor=none;fillColor=none;" parent="1" vertex="1">
          <mxGeometry x="200" y="1380" width="40" height="30" as="geometry" />
        </mxCell>
        <mxCell id="pxBf4jjnQpI_3W8-Z-9e-143" value="true" style="text;html=1;align=center;verticalAlign=middle;resizable=0;points=[];autosize=1;strokeColor=none;fillColor=none;" parent="1" vertex="1">
          <mxGeometry x="210" y="1525" width="40" height="30" as="geometry" />
        </mxCell>
        <mxCell id="pxBf4jjnQpI_3W8-Z-9e-144" value="true" style="text;html=1;align=center;verticalAlign=middle;resizable=0;points=[];autosize=1;strokeColor=none;fillColor=none;" parent="1" vertex="1">
          <mxGeometry x="210" y="1670" width="40" height="30" as="geometry" />
        </mxCell>
        <mxCell id="pxBf4jjnQpI_3W8-Z-9e-145" value="true" style="text;html=1;align=center;verticalAlign=middle;resizable=0;points=[];autosize=1;strokeColor=none;fillColor=none;" parent="1" vertex="1">
          <mxGeometry x="160" y="2080" width="40" height="30" as="geometry" />
        </mxCell>
        <mxCell id="pxBf4jjnQpI_3W8-Z-9e-154" value="false" style="text;html=1;align=center;verticalAlign=middle;resizable=0;points=[];autosize=1;strokeColor=none;fillColor=none;" parent="1" vertex="1">
          <mxGeometry x="155" y="908" width="50" height="30" as="geometry" />
        </mxCell>
        <mxCell id="pxBf4jjnQpI_3W8-Z-9e-155" value="false" style="text;html=1;align=center;verticalAlign=middle;resizable=0;points=[];autosize=1;strokeColor=none;fillColor=none;" parent="1" vertex="1">
          <mxGeometry x="155" y="1050" width="50" height="30" as="geometry" />
        </mxCell>
        <mxCell id="pxBf4jjnQpI_3W8-Z-9e-156" value="false" style="text;html=1;align=center;verticalAlign=middle;resizable=0;points=[];autosize=1;strokeColor=none;fillColor=none;" parent="1" vertex="1">
          <mxGeometry x="65" y="1125" width="50" height="30" as="geometry" />
        </mxCell>
        <mxCell id="pxBf4jjnQpI_3W8-Z-9e-157" value="false" style="text;html=1;align=center;verticalAlign=middle;resizable=0;points=[];autosize=1;strokeColor=none;fillColor=none;" parent="1" vertex="1">
          <mxGeometry x="150" y="1460" width="50" height="30" as="geometry" />
        </mxCell>
        <mxCell id="pxBf4jjnQpI_3W8-Z-9e-158" value="false" style="text;html=1;align=center;verticalAlign=middle;resizable=0;points=[];autosize=1;strokeColor=none;fillColor=none;" parent="1" vertex="1">
          <mxGeometry x="150" y="1600" width="50" height="30" as="geometry" />
        </mxCell>
        <mxCell id="pxBf4jjnQpI_3W8-Z-9e-159" value="false" style="text;html=1;align=center;verticalAlign=middle;resizable=0;points=[];autosize=1;strokeColor=none;fillColor=none;" parent="1" vertex="1">
          <mxGeometry x="60" y="1675" width="50" height="30" as="geometry" />
        </mxCell>
        <mxCell id="pxBf4jjnQpI_3W8-Z-9e-160" value="false" style="text;html=1;align=center;verticalAlign=middle;resizable=0;points=[];autosize=1;strokeColor=none;fillColor=none;" parent="1" vertex="1">
          <mxGeometry x="20" y="1970" width="50" height="30" as="geometry" />
        </mxCell>
        <mxCell id="pxBf4jjnQpI_3W8-Z-9e-166" value="" style="edgeStyle=orthogonalEdgeStyle;rounded=0;orthogonalLoop=1;jettySize=auto;html=1;" parent="1" source="pxBf4jjnQpI_3W8-Z-9e-163" target="pxBf4jjnQpI_3W8-Z-9e-165" edge="1">
          <mxGeometry relative="1" as="geometry" />
        </mxCell>
        <mxCell id="czKzasHrka54ov1dvyU--35" value="" style="edgeStyle=orthogonalEdgeStyle;rounded=0;orthogonalLoop=1;jettySize=auto;html=1;" parent="1" source="pxBf4jjnQpI_3W8-Z-9e-163" target="pxBf4jjnQpI_3W8-Z-9e-173" edge="1">
          <mxGeometry relative="1" as="geometry" />
        </mxCell>
        <mxCell id="pxBf4jjnQpI_3W8-Z-9e-163" value="index==0" style="rhombus;whiteSpace=wrap;html=1;strokeWidth=2;" parent="1" vertex="1">
          <mxGeometry x="410" y="520" width="80" height="80" as="geometry" />
        </mxCell>
        <mxCell id="pxBf4jjnQpI_3W8-Z-9e-191" value="" style="edgeStyle=orthogonalEdgeStyle;rounded=0;orthogonalLoop=1;jettySize=auto;html=1;" parent="1" source="pxBf4jjnQpI_3W8-Z-9e-165" target="pxBf4jjnQpI_3W8-Z-9e-190" edge="1">
          <mxGeometry relative="1" as="geometry" />
        </mxCell>
        <mxCell id="pxBf4jjnQpI_3W8-Z-9e-165" value="belum ada&amp;nbsp;&lt;div&gt;data prestasi&lt;/div&gt;" style="shape=parallelogram;perimeter=parallelogramPerimeter;whiteSpace=wrap;html=1;fixedSize=1;strokeWidth=2;" parent="1" vertex="1">
          <mxGeometry x="245" y="530" width="120" height="60" as="geometry" />
        </mxCell>
        <mxCell id="pxBf4jjnQpI_3W8-Z-9e-184" value="" style="edgeStyle=orthogonalEdgeStyle;rounded=0;orthogonalLoop=1;jettySize=auto;html=1;" parent="1" source="pxBf4jjnQpI_3W8-Z-9e-173" target="pxBf4jjnQpI_3W8-Z-9e-183" edge="1">
          <mxGeometry relative="1" as="geometry" />
        </mxCell>
        <mxCell id="pxBf4jjnQpI_3W8-Z-9e-173" value="i = 0" style="whiteSpace=wrap;html=1;strokeWidth=2;" parent="1" vertex="1">
          <mxGeometry x="390" y="655" width="120" height="60" as="geometry" />
        </mxCell>
        <mxCell id="pxBf4jjnQpI_3W8-Z-9e-180" value="" style="edgeStyle=orthogonalEdgeStyle;rounded=0;orthogonalLoop=1;jettySize=auto;html=1;" parent="1" source="pxBf4jjnQpI_3W8-Z-9e-177" target="pxBf4jjnQpI_3W8-Z-9e-179" edge="1">
          <mxGeometry relative="1" as="geometry" />
        </mxCell>
        <mxCell id="pxBf4jjnQpI_3W8-Z-9e-177" value="nama: namaMahasiswa[i]&lt;div&gt;nim: nimMahasiswa[i]&lt;/div&gt;&lt;div&gt;jenis: jenisPrestasi[i]&lt;/div&gt;&lt;div&gt;tingkat: tingkatPrestasi[i]&lt;/div&gt;&lt;div&gt;tahun: tahunPrestasi[i]&lt;/div&gt;" style="shape=parallelogram;perimeter=parallelogramPerimeter;whiteSpace=wrap;html=1;fixedSize=1;strokeWidth=2;" parent="1" vertex="1">
          <mxGeometry x="360" y="875" width="180" height="100" as="geometry" />
        </mxCell>
        <mxCell id="czKzasHrka54ov1dvyU--21" style="edgeStyle=orthogonalEdgeStyle;rounded=0;orthogonalLoop=1;jettySize=auto;html=1;entryX=1;entryY=0.5;entryDx=0;entryDy=0;" parent="1" source="pxBf4jjnQpI_3W8-Z-9e-179" target="pxBf4jjnQpI_3W8-Z-9e-173" edge="1">
          <mxGeometry relative="1" as="geometry">
            <Array as="points">
              <mxPoint x="560" y="1050" />
              <mxPoint x="560" y="685" />
            </Array>
          </mxGeometry>
        </mxCell>
        <mxCell id="pxBf4jjnQpI_3W8-Z-9e-179" value="i++" style="whiteSpace=wrap;html=1;strokeWidth=2;" parent="1" vertex="1">
          <mxGeometry x="390" y="1020" width="120" height="60" as="geometry" />
        </mxCell>
        <mxCell id="pxBf4jjnQpI_3W8-Z-9e-182" value="A" style="strokeWidth=2;html=1;shape=mxgraph.flowchart.start_2;whiteSpace=wrap;" parent="1" vertex="1">
          <mxGeometry x="325" y="777.5" width="40" height="35" as="geometry" />
        </mxCell>
        <mxCell id="pxBf4jjnQpI_3W8-Z-9e-186" value="" style="edgeStyle=orthogonalEdgeStyle;rounded=0;orthogonalLoop=1;jettySize=auto;html=1;" parent="1" source="pxBf4jjnQpI_3W8-Z-9e-183" target="pxBf4jjnQpI_3W8-Z-9e-177" edge="1">
          <mxGeometry relative="1" as="geometry" />
        </mxCell>
        <mxCell id="pxBf4jjnQpI_3W8-Z-9e-188" value="" style="edgeStyle=orthogonalEdgeStyle;rounded=0;orthogonalLoop=1;jettySize=auto;html=1;" parent="1" source="pxBf4jjnQpI_3W8-Z-9e-183" target="pxBf4jjnQpI_3W8-Z-9e-182" edge="1">
          <mxGeometry relative="1" as="geometry" />
        </mxCell>
        <mxCell id="pxBf4jjnQpI_3W8-Z-9e-183" value="i &amp;lt; index" style="rhombus;whiteSpace=wrap;html=1;strokeWidth=2;" parent="1" vertex="1">
          <mxGeometry x="410" y="755" width="80" height="80" as="geometry" />
        </mxCell>
        <mxCell id="pxBf4jjnQpI_3W8-Z-9e-190" value="A" style="strokeWidth=2;html=1;shape=mxgraph.flowchart.start_2;whiteSpace=wrap;" parent="1" vertex="1">
          <mxGeometry x="285" y="630" width="40" height="35" as="geometry" />
        </mxCell>
        <mxCell id="pxBf4jjnQpI_3W8-Z-9e-192" value="true" style="text;html=1;align=center;verticalAlign=middle;resizable=0;points=[];autosize=1;strokeColor=none;fillColor=none;" parent="1" vertex="1">
          <mxGeometry x="410" y="823" width="40" height="30" as="geometry" />
        </mxCell>
        <mxCell id="pxBf4jjnQpI_3W8-Z-9e-193" value="false" style="text;html=1;align=center;verticalAlign=middle;resizable=0;points=[];autosize=1;strokeColor=none;fillColor=none;" parent="1" vertex="1">
          <mxGeometry x="375" y="763" width="50" height="30" as="geometry" />
        </mxCell>
        <mxCell id="czKzasHrka54ov1dvyU--4" value="" style="edgeStyle=orthogonalEdgeStyle;rounded=0;orthogonalLoop=1;jettySize=auto;html=1;" parent="1" source="czKzasHrka54ov1dvyU--1" target="czKzasHrka54ov1dvyU--3" edge="1">
          <mxGeometry relative="1" as="geometry" />
        </mxCell>
        <mxCell id="czKzasHrka54ov1dvyU--30" value="" style="edgeStyle=orthogonalEdgeStyle;rounded=0;orthogonalLoop=1;jettySize=auto;html=1;" parent="1" source="czKzasHrka54ov1dvyU--1" target="czKzasHrka54ov1dvyU--28" edge="1">
          <mxGeometry relative="1" as="geometry" />
        </mxCell>
        <mxCell id="czKzasHrka54ov1dvyU--1" value="index==0" style="rhombus;whiteSpace=wrap;html=1;strokeWidth=2;" parent="1" vertex="1">
          <mxGeometry x="670" y="511.5" width="100" height="100" as="geometry" />
        </mxCell>
        <mxCell id="czKzasHrka54ov1dvyU--9" value="" style="edgeStyle=orthogonalEdgeStyle;rounded=0;orthogonalLoop=1;jettySize=auto;html=1;" parent="1" source="czKzasHrka54ov1dvyU--3" target="czKzasHrka54ov1dvyU--7" edge="1">
          <mxGeometry relative="1" as="geometry" />
        </mxCell>
        <mxCell id="czKzasHrka54ov1dvyU--3" value="&lt;div&gt;input&lt;/div&gt;cek" style="shape=parallelogram;perimeter=parallelogramPerimeter;whiteSpace=wrap;html=1;fixedSize=1;strokeWidth=2;" parent="1" vertex="1">
          <mxGeometry x="660" y="651.5" width="120" height="60" as="geometry" />
        </mxCell>
        <mxCell id="czKzasHrka54ov1dvyU--11" value="" style="edgeStyle=orthogonalEdgeStyle;rounded=0;orthogonalLoop=1;jettySize=auto;html=1;" parent="1" source="czKzasHrka54ov1dvyU--7" target="czKzasHrka54ov1dvyU--10" edge="1">
          <mxGeometry relative="1" as="geometry" />
        </mxCell>
        <mxCell id="czKzasHrka54ov1dvyU--7" value="i = 0" style="whiteSpace=wrap;html=1;strokeWidth=2;" parent="1" vertex="1">
          <mxGeometry x="660" y="761.5" width="120" height="60" as="geometry" />
        </mxCell>
        <mxCell id="czKzasHrka54ov1dvyU--13" value="" style="edgeStyle=orthogonalEdgeStyle;rounded=0;orthogonalLoop=1;jettySize=auto;html=1;" parent="1" source="czKzasHrka54ov1dvyU--10" target="czKzasHrka54ov1dvyU--12" edge="1">
          <mxGeometry relative="1" as="geometry" />
        </mxCell>
        <mxCell id="czKzasHrka54ov1dvyU--23" value="" style="edgeStyle=orthogonalEdgeStyle;rounded=0;orthogonalLoop=1;jettySize=auto;html=1;" parent="1" source="czKzasHrka54ov1dvyU--10" target="czKzasHrka54ov1dvyU--22" edge="1">
          <mxGeometry relative="1" as="geometry" />
        </mxCell>
        <mxCell id="czKzasHrka54ov1dvyU--10" value="i &amp;lt; index" style="rhombus;whiteSpace=wrap;html=1;strokeWidth=2;" parent="1" vertex="1">
          <mxGeometry x="680" y="854" width="80" height="80" as="geometry" />
        </mxCell>
        <mxCell id="czKzasHrka54ov1dvyU--15" value="" style="edgeStyle=orthogonalEdgeStyle;rounded=0;orthogonalLoop=1;jettySize=auto;html=1;" parent="1" source="czKzasHrka54ov1dvyU--12" target="czKzasHrka54ov1dvyU--14" edge="1">
          <mxGeometry relative="1" as="geometry" />
        </mxCell>
        <mxCell id="czKzasHrka54ov1dvyU--33" style="edgeStyle=orthogonalEdgeStyle;rounded=0;orthogonalLoop=1;jettySize=auto;html=1;entryX=0;entryY=0.5;entryDx=0;entryDy=0;" parent="1" source="czKzasHrka54ov1dvyU--12" target="czKzasHrka54ov1dvyU--16" edge="1">
          <mxGeometry relative="1" as="geometry">
            <Array as="points">
              <mxPoint x="600" y="1043" />
              <mxPoint x="600" y="1329" />
            </Array>
          </mxGeometry>
        </mxCell>
        <mxCell id="czKzasHrka54ov1dvyU--12" value="cek==&lt;div&gt;namaMahasiswa[i]&lt;/div&gt;" style="rhombus;whiteSpace=wrap;html=1;strokeWidth=2;" parent="1" vertex="1">
          <mxGeometry x="650" y="970" width="140" height="145" as="geometry" />
        </mxCell>
        <mxCell id="czKzasHrka54ov1dvyU--17" value="" style="edgeStyle=orthogonalEdgeStyle;rounded=0;orthogonalLoop=1;jettySize=auto;html=1;" parent="1" source="czKzasHrka54ov1dvyU--14" target="czKzasHrka54ov1dvyU--16" edge="1">
          <mxGeometry relative="1" as="geometry" />
        </mxCell>
        <mxCell id="czKzasHrka54ov1dvyU--14" value="nama: namaMahasiswa[i]&lt;div&gt;nim: nimMahasiswa[i]&lt;/div&gt;&lt;div&gt;jenis: jenisPrestasi[i]&lt;/div&gt;&lt;div&gt;tingkat: tingkatPrestasi[i]&lt;/div&gt;&lt;div&gt;tahun: tahunPrestasi[i]&lt;/div&gt;" style="shape=parallelogram;perimeter=parallelogramPerimeter;whiteSpace=wrap;html=1;fixedSize=1;strokeWidth=2;" parent="1" vertex="1">
          <mxGeometry x="630" y="1156.5" width="180" height="100" as="geometry" />
        </mxCell>
        <mxCell id="czKzasHrka54ov1dvyU--20" style="edgeStyle=orthogonalEdgeStyle;rounded=0;orthogonalLoop=1;jettySize=auto;html=1;entryX=1;entryY=0.5;entryDx=0;entryDy=0;" parent="1" source="czKzasHrka54ov1dvyU--16" target="czKzasHrka54ov1dvyU--7" edge="1">
          <mxGeometry relative="1" as="geometry">
            <Array as="points">
              <mxPoint x="840" y="1338.5" />
              <mxPoint x="840" y="791.5" />
            </Array>
          </mxGeometry>
        </mxCell>
        <mxCell id="czKzasHrka54ov1dvyU--16" value="i++" style="whiteSpace=wrap;html=1;strokeWidth=2;" parent="1" vertex="1">
          <mxGeometry x="660" y="1298.5" width="120" height="60" as="geometry" />
        </mxCell>
        <mxCell id="czKzasHrka54ov1dvyU--22" value="A" style="strokeWidth=2;html=1;shape=mxgraph.flowchart.start_2;whiteSpace=wrap;" parent="1" vertex="1">
          <mxGeometry x="600" y="876.5" width="40" height="35" as="geometry" />
        </mxCell>
        <mxCell id="czKzasHrka54ov1dvyU--24" value="true" style="text;html=1;align=center;verticalAlign=middle;resizable=0;points=[];autosize=1;strokeColor=none;fillColor=none;" parent="1" vertex="1">
          <mxGeometry x="680" y="920" width="40" height="30" as="geometry" />
        </mxCell>
        <mxCell id="czKzasHrka54ov1dvyU--25" value="false" style="text;html=1;align=center;verticalAlign=middle;resizable=0;points=[];autosize=1;strokeColor=none;fillColor=none;" parent="1" vertex="1">
          <mxGeometry x="640" y="866.5" width="50" height="30" as="geometry" />
        </mxCell>
        <mxCell id="czKzasHrka54ov1dvyU--26" value="true" style="text;html=1;align=center;verticalAlign=middle;resizable=0;points=[];autosize=1;strokeColor=none;fillColor=none;" parent="1" vertex="1">
          <mxGeometry x="645" y="533" width="40" height="30" as="geometry" />
        </mxCell>
        <mxCell id="czKzasHrka54ov1dvyU--27" value="false" style="text;html=1;align=center;verticalAlign=middle;resizable=0;points=[];autosize=1;strokeColor=none;fillColor=none;" parent="1" vertex="1">
          <mxGeometry x="670" y="605" width="50" height="30" as="geometry" />
        </mxCell>
        <mxCell id="czKzasHrka54ov1dvyU--31" value="" style="edgeStyle=orthogonalEdgeStyle;rounded=0;orthogonalLoop=1;jettySize=auto;html=1;" parent="1" source="czKzasHrka54ov1dvyU--28" target="czKzasHrka54ov1dvyU--29" edge="1">
          <mxGeometry relative="1" as="geometry" />
        </mxCell>
        <mxCell id="czKzasHrka54ov1dvyU--28" value="belum ada&amp;nbsp;&lt;div&gt;data prestasi&lt;/div&gt;" style="shape=parallelogram;perimeter=parallelogramPerimeter;whiteSpace=wrap;html=1;fixedSize=1;strokeWidth=2;" parent="1" vertex="1">
          <mxGeometry x="500" y="531.5" width="120" height="60" as="geometry" />
        </mxCell>
        <mxCell id="czKzasHrka54ov1dvyU--29" value="A" style="strokeWidth=2;html=1;shape=mxgraph.flowchart.start_2;whiteSpace=wrap;" parent="1" vertex="1">
          <mxGeometry x="540" y="450" width="40" height="35" as="geometry" />
        </mxCell>
        <mxCell id="czKzasHrka54ov1dvyU--32" value="true" style="text;html=1;align=center;verticalAlign=middle;resizable=0;points=[];autosize=1;strokeColor=none;fillColor=none;" parent="1" vertex="1">
          <mxGeometry x="680" y="1110" width="40" height="30" as="geometry" />
        </mxCell>
        <mxCell id="czKzasHrka54ov1dvyU--34" value="false" style="text;html=1;align=center;verticalAlign=middle;resizable=0;points=[];autosize=1;strokeColor=none;fillColor=none;" parent="1" vertex="1">
          <mxGeometry x="610" y="1010" width="50" height="30" as="geometry" />
        </mxCell>
        <mxCell id="czKzasHrka54ov1dvyU--36" value="" style="edgeStyle=orthogonalEdgeStyle;rounded=0;orthogonalLoop=1;jettySize=auto;html=1;" parent="1" source="czKzasHrka54ov1dvyU--38" target="czKzasHrka54ov1dvyU--40" edge="1">
          <mxGeometry relative="1" as="geometry" />
        </mxCell>
        <mxCell id="czKzasHrka54ov1dvyU--37" value="" style="edgeStyle=orthogonalEdgeStyle;rounded=0;orthogonalLoop=1;jettySize=auto;html=1;" parent="1" source="czKzasHrka54ov1dvyU--38" target="czKzasHrka54ov1dvyU--59" edge="1">
          <mxGeometry relative="1" as="geometry" />
        </mxCell>
        <mxCell id="czKzasHrka54ov1dvyU--38" value="index==0" style="rhombus;whiteSpace=wrap;html=1;strokeWidth=2;" parent="1" vertex="1">
          <mxGeometry x="950" y="513" width="100" height="100" as="geometry" />
        </mxCell>
        <mxCell id="czKzasHrka54ov1dvyU--39" value="" style="edgeStyle=orthogonalEdgeStyle;rounded=0;orthogonalLoop=1;jettySize=auto;html=1;" parent="1" source="czKzasHrka54ov1dvyU--40" target="czKzasHrka54ov1dvyU--42" edge="1">
          <mxGeometry relative="1" as="geometry" />
        </mxCell>
        <mxCell id="czKzasHrka54ov1dvyU--40" value="&lt;div&gt;input&lt;/div&gt;cek" style="shape=parallelogram;perimeter=parallelogramPerimeter;whiteSpace=wrap;html=1;fixedSize=1;strokeWidth=2;" parent="1" vertex="1">
          <mxGeometry x="940" y="653" width="120" height="60" as="geometry" />
        </mxCell>
        <mxCell id="czKzasHrka54ov1dvyU--41" value="" style="edgeStyle=orthogonalEdgeStyle;rounded=0;orthogonalLoop=1;jettySize=auto;html=1;" parent="1" source="czKzasHrka54ov1dvyU--42" target="czKzasHrka54ov1dvyU--45" edge="1">
          <mxGeometry relative="1" as="geometry" />
        </mxCell>
        <mxCell id="czKzasHrka54ov1dvyU--42" value="i = 0" style="whiteSpace=wrap;html=1;strokeWidth=2;" parent="1" vertex="1">
          <mxGeometry x="940" y="763" width="120" height="60" as="geometry" />
        </mxCell>
        <mxCell id="czKzasHrka54ov1dvyU--43" value="" style="edgeStyle=orthogonalEdgeStyle;rounded=0;orthogonalLoop=1;jettySize=auto;html=1;" parent="1" source="czKzasHrka54ov1dvyU--45" target="czKzasHrka54ov1dvyU--48" edge="1">
          <mxGeometry relative="1" as="geometry" />
        </mxCell>
        <mxCell id="czKzasHrka54ov1dvyU--44" value="" style="edgeStyle=orthogonalEdgeStyle;rounded=0;orthogonalLoop=1;jettySize=auto;html=1;" parent="1" source="czKzasHrka54ov1dvyU--45" target="czKzasHrka54ov1dvyU--53" edge="1">
          <mxGeometry relative="1" as="geometry" />
        </mxCell>
        <mxCell id="czKzasHrka54ov1dvyU--45" value="i &amp;lt; index" style="rhombus;whiteSpace=wrap;html=1;strokeWidth=2;" parent="1" vertex="1">
          <mxGeometry x="960" y="855.5" width="80" height="80" as="geometry" />
        </mxCell>
        <mxCell id="czKzasHrka54ov1dvyU--46" value="" style="edgeStyle=orthogonalEdgeStyle;rounded=0;orthogonalLoop=1;jettySize=auto;html=1;" parent="1" source="czKzasHrka54ov1dvyU--48" target="czKzasHrka54ov1dvyU--50" edge="1">
          <mxGeometry relative="1" as="geometry" />
        </mxCell>
        <mxCell id="czKzasHrka54ov1dvyU--47" style="edgeStyle=orthogonalEdgeStyle;rounded=0;orthogonalLoop=1;jettySize=auto;html=1;entryX=0;entryY=0.5;entryDx=0;entryDy=0;" parent="1" source="czKzasHrka54ov1dvyU--48" target="czKzasHrka54ov1dvyU--52" edge="1">
          <mxGeometry relative="1" as="geometry">
            <Array as="points">
              <mxPoint x="880" y="1044.5" />
              <mxPoint x="880" y="1330.5" />
            </Array>
          </mxGeometry>
        </mxCell>
        <mxCell id="czKzasHrka54ov1dvyU--48" value="cek==&lt;div&gt;jenisPrestasi[i]&lt;/div&gt;" style="rhombus;whiteSpace=wrap;html=1;strokeWidth=2;" parent="1" vertex="1">
          <mxGeometry x="930" y="971.5" width="140" height="145" as="geometry" />
        </mxCell>
        <mxCell id="czKzasHrka54ov1dvyU--49" value="" style="edgeStyle=orthogonalEdgeStyle;rounded=0;orthogonalLoop=1;jettySize=auto;html=1;" parent="1" source="czKzasHrka54ov1dvyU--50" target="czKzasHrka54ov1dvyU--52" edge="1">
          <mxGeometry relative="1" as="geometry" />
        </mxCell>
        <mxCell id="czKzasHrka54ov1dvyU--50" value="nama: namaMahasiswa[i]&lt;div&gt;nim: nimMahasiswa[i]&lt;/div&gt;&lt;div&gt;jenis: jenisPrestasi[i]&lt;/div&gt;&lt;div&gt;tingkat: tingkatPrestasi[i]&lt;/div&gt;&lt;div&gt;tahun: tahunPrestasi[i]&lt;/div&gt;" style="shape=parallelogram;perimeter=parallelogramPerimeter;whiteSpace=wrap;html=1;fixedSize=1;strokeWidth=2;" parent="1" vertex="1">
          <mxGeometry x="910" y="1158" width="180" height="100" as="geometry" />
        </mxCell>
        <mxCell id="czKzasHrka54ov1dvyU--51" style="edgeStyle=orthogonalEdgeStyle;rounded=0;orthogonalLoop=1;jettySize=auto;html=1;entryX=1;entryY=0.5;entryDx=0;entryDy=0;" parent="1" source="czKzasHrka54ov1dvyU--52" target="czKzasHrka54ov1dvyU--42" edge="1">
          <mxGeometry relative="1" as="geometry">
            <Array as="points">
              <mxPoint x="1120" y="1340" />
              <mxPoint x="1120" y="793" />
            </Array>
          </mxGeometry>
        </mxCell>
        <mxCell id="czKzasHrka54ov1dvyU--52" value="i++" style="whiteSpace=wrap;html=1;strokeWidth=2;" parent="1" vertex="1">
          <mxGeometry x="940" y="1300" width="120" height="60" as="geometry" />
        </mxCell>
        <mxCell id="czKzasHrka54ov1dvyU--53" value="A" style="strokeWidth=2;html=1;shape=mxgraph.flowchart.start_2;whiteSpace=wrap;" parent="1" vertex="1">
          <mxGeometry x="880" y="878" width="40" height="35" as="geometry" />
        </mxCell>
        <mxCell id="czKzasHrka54ov1dvyU--54" value="true" style="text;html=1;align=center;verticalAlign=middle;resizable=0;points=[];autosize=1;strokeColor=none;fillColor=none;" parent="1" vertex="1">
          <mxGeometry x="960" y="921.5" width="40" height="30" as="geometry" />
        </mxCell>
        <mxCell id="czKzasHrka54ov1dvyU--55" value="false" style="text;html=1;align=center;verticalAlign=middle;resizable=0;points=[];autosize=1;strokeColor=none;fillColor=none;" parent="1" vertex="1">
          <mxGeometry x="920" y="868" width="50" height="30" as="geometry" />
        </mxCell>
        <mxCell id="czKzasHrka54ov1dvyU--56" value="true" style="text;html=1;align=center;verticalAlign=middle;resizable=0;points=[];autosize=1;strokeColor=none;fillColor=none;" parent="1" vertex="1">
          <mxGeometry x="920" y="535" width="40" height="30" as="geometry" />
        </mxCell>
        <mxCell id="czKzasHrka54ov1dvyU--57" value="false" style="text;html=1;align=center;verticalAlign=middle;resizable=0;points=[];autosize=1;strokeColor=none;fillColor=none;" parent="1" vertex="1">
          <mxGeometry x="950" y="605" width="50" height="30" as="geometry" />
        </mxCell>
        <mxCell id="czKzasHrka54ov1dvyU--67" value="" style="edgeStyle=orthogonalEdgeStyle;rounded=0;orthogonalLoop=1;jettySize=auto;html=1;" parent="1" source="czKzasHrka54ov1dvyU--59" target="czKzasHrka54ov1dvyU--65" edge="1">
          <mxGeometry relative="1" as="geometry" />
        </mxCell>
        <mxCell id="czKzasHrka54ov1dvyU--59" value="belum ada&amp;nbsp;&lt;div&gt;data prestasi&lt;/div&gt;" style="shape=parallelogram;perimeter=parallelogramPerimeter;whiteSpace=wrap;html=1;fixedSize=1;strokeWidth=2;" parent="1" vertex="1">
          <mxGeometry x="780" y="533" width="120" height="60" as="geometry" />
        </mxCell>
        <mxCell id="czKzasHrka54ov1dvyU--60" value="true" style="text;html=1;align=center;verticalAlign=middle;resizable=0;points=[];autosize=1;strokeColor=none;fillColor=none;" parent="1" vertex="1">
          <mxGeometry x="960" y="1111.5" width="40" height="30" as="geometry" />
        </mxCell>
        <mxCell id="czKzasHrka54ov1dvyU--61" value="false" style="text;html=1;align=center;verticalAlign=middle;resizable=0;points=[];autosize=1;strokeColor=none;fillColor=none;" parent="1" vertex="1">
          <mxGeometry x="890" y="1011.5" width="50" height="30" as="geometry" />
        </mxCell>
        <mxCell id="czKzasHrka54ov1dvyU--65" value="A" style="strokeWidth=2;html=1;shape=mxgraph.flowchart.start_2;whiteSpace=wrap;" parent="1" vertex="1">
          <mxGeometry x="820" y="460" width="40" height="35" as="geometry" />
        </mxCell>
        <mxCell id="czKzasHrka54ov1dvyU--73" value="" style="edgeStyle=orthogonalEdgeStyle;rounded=0;orthogonalLoop=1;jettySize=auto;html=1;" parent="1" source="czKzasHrka54ov1dvyU--75" target="czKzasHrka54ov1dvyU--77" edge="1">
          <mxGeometry relative="1" as="geometry" />
        </mxCell>
        <mxCell id="czKzasHrka54ov1dvyU--74" value="" style="edgeStyle=orthogonalEdgeStyle;rounded=0;orthogonalLoop=1;jettySize=auto;html=1;" parent="1" source="czKzasHrka54ov1dvyU--75" target="czKzasHrka54ov1dvyU--96" edge="1">
          <mxGeometry relative="1" as="geometry" />
        </mxCell>
        <mxCell id="czKzasHrka54ov1dvyU--75" value="index==0" style="rhombus;whiteSpace=wrap;html=1;strokeWidth=2;" parent="1" vertex="1">
          <mxGeometry x="1240" y="513" width="100" height="100" as="geometry" />
        </mxCell>
        <mxCell id="czKzasHrka54ov1dvyU--76" value="" style="edgeStyle=orthogonalEdgeStyle;rounded=0;orthogonalLoop=1;jettySize=auto;html=1;" parent="1" source="czKzasHrka54ov1dvyU--77" target="czKzasHrka54ov1dvyU--79" edge="1">
          <mxGeometry relative="1" as="geometry" />
        </mxCell>
        <mxCell id="czKzasHrka54ov1dvyU--77" value="&lt;div&gt;input&lt;/div&gt;cek" style="shape=parallelogram;perimeter=parallelogramPerimeter;whiteSpace=wrap;html=1;fixedSize=1;strokeWidth=2;" parent="1" vertex="1">
          <mxGeometry x="1230" y="653" width="120" height="60" as="geometry" />
        </mxCell>
        <mxCell id="czKzasHrka54ov1dvyU--78" value="" style="edgeStyle=orthogonalEdgeStyle;rounded=0;orthogonalLoop=1;jettySize=auto;html=1;" parent="1" source="czKzasHrka54ov1dvyU--79" target="czKzasHrka54ov1dvyU--82" edge="1">
          <mxGeometry relative="1" as="geometry" />
        </mxCell>
        <mxCell id="czKzasHrka54ov1dvyU--79" value="i = 0" style="whiteSpace=wrap;html=1;strokeWidth=2;" parent="1" vertex="1">
          <mxGeometry x="1230" y="763" width="120" height="60" as="geometry" />
        </mxCell>
        <mxCell id="czKzasHrka54ov1dvyU--80" value="" style="edgeStyle=orthogonalEdgeStyle;rounded=0;orthogonalLoop=1;jettySize=auto;html=1;" parent="1" source="czKzasHrka54ov1dvyU--82" target="czKzasHrka54ov1dvyU--85" edge="1">
          <mxGeometry relative="1" as="geometry" />
        </mxCell>
        <mxCell id="czKzasHrka54ov1dvyU--81" value="" style="edgeStyle=orthogonalEdgeStyle;rounded=0;orthogonalLoop=1;jettySize=auto;html=1;" parent="1" source="czKzasHrka54ov1dvyU--82" target="czKzasHrka54ov1dvyU--90" edge="1">
          <mxGeometry relative="1" as="geometry" />
        </mxCell>
        <mxCell id="czKzasHrka54ov1dvyU--82" value="i &amp;lt; index" style="rhombus;whiteSpace=wrap;html=1;strokeWidth=2;" parent="1" vertex="1">
          <mxGeometry x="1250" y="855.5" width="80" height="80" as="geometry" />
        </mxCell>
        <mxCell id="czKzasHrka54ov1dvyU--83" value="" style="edgeStyle=orthogonalEdgeStyle;rounded=0;orthogonalLoop=1;jettySize=auto;html=1;" parent="1" source="czKzasHrka54ov1dvyU--85" target="czKzasHrka54ov1dvyU--87" edge="1">
          <mxGeometry relative="1" as="geometry" />
        </mxCell>
        <mxCell id="czKzasHrka54ov1dvyU--84" style="edgeStyle=orthogonalEdgeStyle;rounded=0;orthogonalLoop=1;jettySize=auto;html=1;entryX=0;entryY=0.5;entryDx=0;entryDy=0;" parent="1" source="czKzasHrka54ov1dvyU--85" target="czKzasHrka54ov1dvyU--89" edge="1">
          <mxGeometry relative="1" as="geometry">
            <Array as="points">
              <mxPoint x="1170" y="1044.5" />
              <mxPoint x="1170" y="1330.5" />
            </Array>
          </mxGeometry>
        </mxCell>
        <mxCell id="czKzasHrka54ov1dvyU--85" value="cek==&lt;div&gt;tingkatPrestasi[i]&lt;/div&gt;" style="rhombus;whiteSpace=wrap;html=1;strokeWidth=2;" parent="1" vertex="1">
          <mxGeometry x="1220" y="971.5" width="140" height="145" as="geometry" />
        </mxCell>
        <mxCell id="czKzasHrka54ov1dvyU--86" value="" style="edgeStyle=orthogonalEdgeStyle;rounded=0;orthogonalLoop=1;jettySize=auto;html=1;" parent="1" source="czKzasHrka54ov1dvyU--87" target="czKzasHrka54ov1dvyU--89" edge="1">
          <mxGeometry relative="1" as="geometry" />
        </mxCell>
        <mxCell id="czKzasHrka54ov1dvyU--87" value="nama: namaMahasiswa[i]&lt;div&gt;nim: nimMahasiswa[i]&lt;/div&gt;&lt;div&gt;jenis: jenisPrestasi[i]&lt;/div&gt;&lt;div&gt;tingkat: tingkatPrestasi[i]&lt;/div&gt;&lt;div&gt;tahun: tahunPrestasi[i]&lt;/div&gt;" style="shape=parallelogram;perimeter=parallelogramPerimeter;whiteSpace=wrap;html=1;fixedSize=1;strokeWidth=2;" parent="1" vertex="1">
          <mxGeometry x="1200" y="1158" width="180" height="100" as="geometry" />
        </mxCell>
        <mxCell id="czKzasHrka54ov1dvyU--88" style="edgeStyle=orthogonalEdgeStyle;rounded=0;orthogonalLoop=1;jettySize=auto;html=1;entryX=1;entryY=0.5;entryDx=0;entryDy=0;" parent="1" source="czKzasHrka54ov1dvyU--89" target="czKzasHrka54ov1dvyU--79" edge="1">
          <mxGeometry relative="1" as="geometry">
            <Array as="points">
              <mxPoint x="1410" y="1340" />
              <mxPoint x="1410" y="793" />
            </Array>
          </mxGeometry>
        </mxCell>
        <mxCell id="czKzasHrka54ov1dvyU--89" value="i++" style="whiteSpace=wrap;html=1;strokeWidth=2;" parent="1" vertex="1">
          <mxGeometry x="1230" y="1300" width="120" height="60" as="geometry" />
        </mxCell>
        <mxCell id="czKzasHrka54ov1dvyU--90" value="A" style="strokeWidth=2;html=1;shape=mxgraph.flowchart.start_2;whiteSpace=wrap;" parent="1" vertex="1">
          <mxGeometry x="1170" y="878" width="40" height="35" as="geometry" />
        </mxCell>
        <mxCell id="czKzasHrka54ov1dvyU--91" value="true" style="text;html=1;align=center;verticalAlign=middle;resizable=0;points=[];autosize=1;strokeColor=none;fillColor=none;" parent="1" vertex="1">
          <mxGeometry x="1250" y="921.5" width="40" height="30" as="geometry" />
        </mxCell>
        <mxCell id="czKzasHrka54ov1dvyU--92" value="false" style="text;html=1;align=center;verticalAlign=middle;resizable=0;points=[];autosize=1;strokeColor=none;fillColor=none;" parent="1" vertex="1">
          <mxGeometry x="1210" y="868" width="50" height="30" as="geometry" />
        </mxCell>
        <mxCell id="czKzasHrka54ov1dvyU--93" value="true" style="text;html=1;align=center;verticalAlign=middle;resizable=0;points=[];autosize=1;strokeColor=none;fillColor=none;" parent="1" vertex="1">
          <mxGeometry x="1210" y="528" width="40" height="30" as="geometry" />
        </mxCell>
        <mxCell id="czKzasHrka54ov1dvyU--94" value="false" style="text;html=1;align=center;verticalAlign=middle;resizable=0;points=[];autosize=1;strokeColor=none;fillColor=none;" parent="1" vertex="1">
          <mxGeometry x="1245" y="605" width="50" height="30" as="geometry" />
        </mxCell>
        <mxCell id="czKzasHrka54ov1dvyU--95" value="" style="edgeStyle=orthogonalEdgeStyle;rounded=0;orthogonalLoop=1;jettySize=auto;html=1;" parent="1" source="czKzasHrka54ov1dvyU--96" target="czKzasHrka54ov1dvyU--99" edge="1">
          <mxGeometry relative="1" as="geometry" />
        </mxCell>
        <mxCell id="czKzasHrka54ov1dvyU--96" value="belum ada&amp;nbsp;&lt;div&gt;data prestasi&lt;/div&gt;" style="shape=parallelogram;perimeter=parallelogramPerimeter;whiteSpace=wrap;html=1;fixedSize=1;strokeWidth=2;" parent="1" vertex="1">
          <mxGeometry x="1070" y="533" width="120" height="60" as="geometry" />
        </mxCell>
        <mxCell id="czKzasHrka54ov1dvyU--97" value="true" style="text;html=1;align=center;verticalAlign=middle;resizable=0;points=[];autosize=1;strokeColor=none;fillColor=none;" parent="1" vertex="1">
          <mxGeometry x="1250" y="1111.5" width="40" height="30" as="geometry" />
        </mxCell>
        <mxCell id="czKzasHrka54ov1dvyU--98" value="false" style="text;html=1;align=center;verticalAlign=middle;resizable=0;points=[];autosize=1;strokeColor=none;fillColor=none;" parent="1" vertex="1">
          <mxGeometry x="1180" y="1011.5" width="50" height="30" as="geometry" />
        </mxCell>
        <mxCell id="czKzasHrka54ov1dvyU--99" value="A" style="strokeWidth=2;html=1;shape=mxgraph.flowchart.start_2;whiteSpace=wrap;" parent="1" vertex="1">
          <mxGeometry x="1110" y="460" width="40" height="35" as="geometry" />
        </mxCell>
        <mxCell id="czKzasHrka54ov1dvyU--104" value="" style="edgeStyle=orthogonalEdgeStyle;rounded=0;orthogonalLoop=1;jettySize=auto;html=1;" parent="1" source="czKzasHrka54ov1dvyU--106" target="czKzasHrka54ov1dvyU--108" edge="1">
          <mxGeometry relative="1" as="geometry" />
        </mxCell>
        <mxCell id="czKzasHrka54ov1dvyU--105" value="" style="edgeStyle=orthogonalEdgeStyle;rounded=0;orthogonalLoop=1;jettySize=auto;html=1;" parent="1" source="czKzasHrka54ov1dvyU--106" target="czKzasHrka54ov1dvyU--127" edge="1">
          <mxGeometry relative="1" as="geometry" />
        </mxCell>
        <mxCell id="czKzasHrka54ov1dvyU--106" value="index==0" style="rhombus;whiteSpace=wrap;html=1;strokeWidth=2;" parent="1" vertex="1">
          <mxGeometry x="1520" y="513" width="100" height="100" as="geometry" />
        </mxCell>
        <mxCell id="czKzasHrka54ov1dvyU--107" value="" style="edgeStyle=orthogonalEdgeStyle;rounded=0;orthogonalLoop=1;jettySize=auto;html=1;" parent="1" source="czKzasHrka54ov1dvyU--108" target="czKzasHrka54ov1dvyU--110" edge="1">
          <mxGeometry relative="1" as="geometry" />
        </mxCell>
        <mxCell id="czKzasHrka54ov1dvyU--108" value="&lt;div&gt;input&lt;/div&gt;cek" style="shape=parallelogram;perimeter=parallelogramPerimeter;whiteSpace=wrap;html=1;fixedSize=1;strokeWidth=2;" parent="1" vertex="1">
          <mxGeometry x="1510" y="653" width="120" height="60" as="geometry" />
        </mxCell>
        <mxCell id="czKzasHrka54ov1dvyU--109" value="" style="edgeStyle=orthogonalEdgeStyle;rounded=0;orthogonalLoop=1;jettySize=auto;html=1;" parent="1" source="czKzasHrka54ov1dvyU--110" target="czKzasHrka54ov1dvyU--113" edge="1">
          <mxGeometry relative="1" as="geometry" />
        </mxCell>
        <mxCell id="czKzasHrka54ov1dvyU--110" value="i = 0" style="whiteSpace=wrap;html=1;strokeWidth=2;" parent="1" vertex="1">
          <mxGeometry x="1510" y="763" width="120" height="60" as="geometry" />
        </mxCell>
        <mxCell id="czKzasHrka54ov1dvyU--111" value="" style="edgeStyle=orthogonalEdgeStyle;rounded=0;orthogonalLoop=1;jettySize=auto;html=1;" parent="1" source="czKzasHrka54ov1dvyU--113" target="czKzasHrka54ov1dvyU--116" edge="1">
          <mxGeometry relative="1" as="geometry" />
        </mxCell>
        <mxCell id="czKzasHrka54ov1dvyU--112" value="" style="edgeStyle=orthogonalEdgeStyle;rounded=0;orthogonalLoop=1;jettySize=auto;html=1;" parent="1" source="czKzasHrka54ov1dvyU--113" target="czKzasHrka54ov1dvyU--121" edge="1">
          <mxGeometry relative="1" as="geometry" />
        </mxCell>
        <mxCell id="czKzasHrka54ov1dvyU--113" value="i &amp;lt; index" style="rhombus;whiteSpace=wrap;html=1;strokeWidth=2;" parent="1" vertex="1">
          <mxGeometry x="1530" y="855.5" width="80" height="80" as="geometry" />
        </mxCell>
        <mxCell id="czKzasHrka54ov1dvyU--114" value="" style="edgeStyle=orthogonalEdgeStyle;rounded=0;orthogonalLoop=1;jettySize=auto;html=1;" parent="1" source="czKzasHrka54ov1dvyU--116" target="czKzasHrka54ov1dvyU--118" edge="1">
          <mxGeometry relative="1" as="geometry" />
        </mxCell>
        <mxCell id="czKzasHrka54ov1dvyU--115" style="edgeStyle=orthogonalEdgeStyle;rounded=0;orthogonalLoop=1;jettySize=auto;html=1;entryX=0;entryY=0.5;entryDx=0;entryDy=0;" parent="1" source="czKzasHrka54ov1dvyU--116" target="czKzasHrka54ov1dvyU--120" edge="1">
          <mxGeometry relative="1" as="geometry">
            <Array as="points">
              <mxPoint x="1450" y="1044.5" />
              <mxPoint x="1450" y="1330.5" />
            </Array>
          </mxGeometry>
        </mxCell>
        <mxCell id="czKzasHrka54ov1dvyU--116" value="cek==&lt;div&gt;tahunPrestasi[i]&lt;/div&gt;" style="rhombus;whiteSpace=wrap;html=1;strokeWidth=2;" parent="1" vertex="1">
          <mxGeometry x="1500" y="971.5" width="140" height="145" as="geometry" />
        </mxCell>
        <mxCell id="czKzasHrka54ov1dvyU--117" value="" style="edgeStyle=orthogonalEdgeStyle;rounded=0;orthogonalLoop=1;jettySize=auto;html=1;" parent="1" source="czKzasHrka54ov1dvyU--118" target="czKzasHrka54ov1dvyU--120" edge="1">
          <mxGeometry relative="1" as="geometry" />
        </mxCell>
        <mxCell id="czKzasHrka54ov1dvyU--118" value="nama: namaMahasiswa[i]&lt;div&gt;nim: nimMahasiswa[i]&lt;/div&gt;&lt;div&gt;jenis: jenisPrestasi[i]&lt;/div&gt;&lt;div&gt;tingkat: tingkatPrestasi[i]&lt;/div&gt;&lt;div&gt;tahun: tahunPrestasi[i]&lt;/div&gt;" style="shape=parallelogram;perimeter=parallelogramPerimeter;whiteSpace=wrap;html=1;fixedSize=1;strokeWidth=2;" parent="1" vertex="1">
          <mxGeometry x="1480" y="1158" width="180" height="100" as="geometry" />
        </mxCell>
        <mxCell id="czKzasHrka54ov1dvyU--119" style="edgeStyle=orthogonalEdgeStyle;rounded=0;orthogonalLoop=1;jettySize=auto;html=1;entryX=1;entryY=0.5;entryDx=0;entryDy=0;" parent="1" source="czKzasHrka54ov1dvyU--120" target="czKzasHrka54ov1dvyU--110" edge="1">
          <mxGeometry relative="1" as="geometry">
            <Array as="points">
              <mxPoint x="1690" y="1340" />
              <mxPoint x="1690" y="793" />
            </Array>
          </mxGeometry>
        </mxCell>
        <mxCell id="czKzasHrka54ov1dvyU--120" value="i++" style="whiteSpace=wrap;html=1;strokeWidth=2;" parent="1" vertex="1">
          <mxGeometry x="1510" y="1300" width="120" height="60" as="geometry" />
        </mxCell>
        <mxCell id="czKzasHrka54ov1dvyU--121" value="A" style="strokeWidth=2;html=1;shape=mxgraph.flowchart.start_2;whiteSpace=wrap;" parent="1" vertex="1">
          <mxGeometry x="1450" y="878" width="40" height="35" as="geometry" />
        </mxCell>
        <mxCell id="czKzasHrka54ov1dvyU--122" value="true" style="text;html=1;align=center;verticalAlign=middle;resizable=0;points=[];autosize=1;strokeColor=none;fillColor=none;" parent="1" vertex="1">
          <mxGeometry x="1530" y="921.5" width="40" height="30" as="geometry" />
        </mxCell>
        <mxCell id="czKzasHrka54ov1dvyU--123" value="false" style="text;html=1;align=center;verticalAlign=middle;resizable=0;points=[];autosize=1;strokeColor=none;fillColor=none;" parent="1" vertex="1">
          <mxGeometry x="1490" y="868" width="50" height="30" as="geometry" />
        </mxCell>
        <mxCell id="czKzasHrka54ov1dvyU--124" value="true" style="text;html=1;align=center;verticalAlign=middle;resizable=0;points=[];autosize=1;strokeColor=none;fillColor=none;" parent="1" vertex="1">
          <mxGeometry x="1480" y="535" width="40" height="30" as="geometry" />
        </mxCell>
        <mxCell id="czKzasHrka54ov1dvyU--125" value="false" style="text;html=1;align=center;verticalAlign=middle;resizable=0;points=[];autosize=1;strokeColor=none;fillColor=none;" parent="1" vertex="1">
          <mxGeometry x="1520" y="605" width="50" height="30" as="geometry" />
        </mxCell>
        <mxCell id="czKzasHrka54ov1dvyU--126" value="" style="edgeStyle=orthogonalEdgeStyle;rounded=0;orthogonalLoop=1;jettySize=auto;html=1;" parent="1" source="czKzasHrka54ov1dvyU--127" target="czKzasHrka54ov1dvyU--130" edge="1">
          <mxGeometry relative="1" as="geometry" />
        </mxCell>
        <mxCell id="czKzasHrka54ov1dvyU--127" value="belum ada&amp;nbsp;&lt;div&gt;data prestasi&lt;/div&gt;" style="shape=parallelogram;perimeter=parallelogramPerimeter;whiteSpace=wrap;html=1;fixedSize=1;strokeWidth=2;" parent="1" vertex="1">
          <mxGeometry x="1350" y="533" width="120" height="60" as="geometry" />
        </mxCell>
        <mxCell id="czKzasHrka54ov1dvyU--128" value="true" style="text;html=1;align=center;verticalAlign=middle;resizable=0;points=[];autosize=1;strokeColor=none;fillColor=none;" parent="1" vertex="1">
          <mxGeometry x="1530" y="1111.5" width="40" height="30" as="geometry" />
        </mxCell>
        <mxCell id="czKzasHrka54ov1dvyU--129" value="false" style="text;html=1;align=center;verticalAlign=middle;resizable=0;points=[];autosize=1;strokeColor=none;fillColor=none;" parent="1" vertex="1">
          <mxGeometry x="1460" y="1011.5" width="50" height="30" as="geometry" />
        </mxCell>
        <mxCell id="czKzasHrka54ov1dvyU--130" value="A" style="strokeWidth=2;html=1;shape=mxgraph.flowchart.start_2;whiteSpace=wrap;" parent="1" vertex="1">
          <mxGeometry x="1390" y="460" width="40" height="35" as="geometry" />
        </mxCell>
        <mxCell id="czKzasHrka54ov1dvyU--133" value="true" style="text;html=1;align=center;verticalAlign=middle;resizable=0;points=[];autosize=1;strokeColor=none;fillColor=none;" parent="1" vertex="1">
          <mxGeometry x="120" y="450" width="40" height="30" as="geometry" />
        </mxCell>
        <mxCell id="czKzasHrka54ov1dvyU--134" value="true" style="text;html=1;align=center;verticalAlign=middle;resizable=0;points=[];autosize=1;strokeColor=none;fillColor=none;" parent="1" vertex="1">
          <mxGeometry x="410" y="452.5" width="40" height="30" as="geometry" />
        </mxCell>
        <mxCell id="czKzasHrka54ov1dvyU--135" value="true" style="text;html=1;align=center;verticalAlign=middle;resizable=0;points=[];autosize=1;strokeColor=none;fillColor=none;" parent="1" vertex="1">
          <mxGeometry x="680" y="453" width="40" height="30" as="geometry" />
        </mxCell>
        <mxCell id="czKzasHrka54ov1dvyU--136" value="true" style="text;html=1;align=center;verticalAlign=middle;resizable=0;points=[];autosize=1;strokeColor=none;fillColor=none;" parent="1" vertex="1">
          <mxGeometry x="960" y="455" width="40" height="30" as="geometry" />
        </mxCell>
        <mxCell id="czKzasHrka54ov1dvyU--137" value="true" style="text;html=1;align=center;verticalAlign=middle;resizable=0;points=[];autosize=1;strokeColor=none;fillColor=none;" parent="1" vertex="1">
          <mxGeometry x="1255" y="452.5" width="40" height="30" as="geometry" />
        </mxCell>
        <mxCell id="czKzasHrka54ov1dvyU--138" value="true" style="text;html=1;align=center;verticalAlign=middle;resizable=0;points=[];autosize=1;strokeColor=none;fillColor=none;" parent="1" vertex="1">
          <mxGeometry x="1530" y="450" width="40" height="30" as="geometry" />
        </mxCell>
        <mxCell id="czKzasHrka54ov1dvyU--139" value="true" style="text;html=1;align=center;verticalAlign=middle;resizable=0;points=[];autosize=1;strokeColor=none;fillColor=none;" parent="1" vertex="1">
          <mxGeometry x="1720" y="450" width="40" height="30" as="geometry" />
        </mxCell>
        <mxCell id="xtjQl0Pk59A_ZZ2wyOkk-3" value="" style="edgeStyle=orthogonalEdgeStyle;rounded=0;orthogonalLoop=1;jettySize=auto;html=1;" parent="1" source="xtjQl0Pk59A_ZZ2wyOkk-1" target="pxBf4jjnQpI_3W8-Z-9e-6" edge="1">
          <mxGeometry relative="1" as="geometry" />
        </mxCell>
        <mxCell id="xtjQl0Pk59A_ZZ2wyOkk-1" value="int menu, int maxData=100, int index=0, String[] namaMahasiswa, String[] jenisPrestasi,String[] tingkatPrestasi, long nimMahasiswa, int tahunPrestasi" style="shape=hexagon;perimeter=hexagonPerimeter2;whiteSpace=wrap;html=1;fixedSize=1;strokeWidth=2;" parent="1" vertex="1">
          <mxGeometry x="40" y="90" width="240" height="100" as="geometry" />
        </mxCell>
        <mxCell id="qoQrF_8J-7VpmfD8b-Bv-1" value="true" style="text;html=1;align=center;verticalAlign=middle;resizable=0;points=[];autosize=1;strokeColor=none;fillColor=none;" parent="1" vertex="1">
          <mxGeometry x="390" y="528" width="40" height="30" as="geometry" />
        </mxCell>
        <mxCell id="qoQrF_8J-7VpmfD8b-Bv-2" value="false" style="text;html=1;align=center;verticalAlign=middle;resizable=0;points=[];autosize=1;strokeColor=none;fillColor=none;" parent="1" vertex="1">
          <mxGeometry x="405" y="591.5" width="50" height="30" as="geometry" />
        </mxCell>
      </root>
    </mxGraphModel>
  </diagram>
</mxfile>
